<?xml version="1.0" encoding="utf-8"?>
<!-- Generator: Adobe Illustrator 19.0.0, SVG Export Plug-In . SVG Version: 6.00 Build 0)  -->
<svg version="1.1" id="Layer_1" xmlns="http://www.w3.org/2000/svg" xmlns:xlink="http://www.w3.org/1999/xlink" x="0px" y="0px"
	 width="143.2px" height="185px" viewBox="-407 188 143.2 185" style="enable-background:new -407 188 143.2 185;"
	 xml:space="preserve">
<style type="text/css">
	.st0{fill:#DDDDDD;enable-background:new    ;}
	.st1{fill:#E3D475;stroke:#000000;stroke-width:3;stroke-linecap:round;stroke-miterlimit:10;}
	.st2{clip-path:url(#SVGID_2_);}
	.st3{fill:#F7E8A9;stroke:#000000;stroke-width:3;stroke-linecap:round;stroke-miterlimit:10;}
	.st4{enable-background:new    ;}
	.st5{opacity:0.3;fill:#896E16;enable-background:new    ;}
	.st6{fill:#B2A672;}
	.st7{fill:#F7E8A9;}
	.st8{fill:none;stroke:#000000;stroke-width:3;stroke-linecap:round;stroke-miterlimit:10;}
	.st9{fill:#FFFFFF;}
	.st10{fill:#010101;}
</style>
<g id="XMLID_13_">
	<g id="XMLID_1_">
		<ellipse id="XMLID_2121_" class="st0" cx="-333.8" cy="368.1" rx="47.4" ry="4.9"/>
		<g id="XMLID_2122_">
			<g id="XMLID_2100_">
				<path id="XMLID_2123_" class="st1" d="M-299.2,367.2h-69.2c-1.6,0-2.8-1.3-2.8-2.8V305c0-1.6,1.3-2.8,2.8-2.8h69.2
					c1.6,0,2.8,1.3,2.8,2.8v59.4C-296.3,366-297.6,367.2-299.2,367.2z"/>
				<g id="XMLID_2098_">
					<g>
						<defs>
							<path id="SVGID_1_" d="M-300.2,366.4h-67.2c-1.6,0-2.8-1.3-2.8-2.8v-57.7c0-1.6,1.3-2.8,2.8-2.8h67.2c1.6,0,2.8,1.3,2.8,2.8
								v57.7C-297.4,365.1-298.6,366.4-300.2,366.4z"/>
						</defs>
						<clipPath id="SVGID_2_">
							<use xlink:href="#SVGID_1_"  style="overflow:visible;"/>
						</clipPath>
						<g id="XMLID_2082_" class="st2">
							
								<rect id="XMLID_2064_" x="-361.7" y="309.4" transform="matrix(-0.7071 0.7071 -0.7071 -0.7071 -351.7451 877.1387)" class="st3" width="8.4" height="112.7"/>
							
								<rect id="XMLID_2088_" x="-350.8" y="298.5" transform="matrix(-0.7071 0.7071 -0.7071 -0.7071 -340.8244 850.8241)" class="st3" width="8.4" height="112.7"/>
							
								<rect id="XMLID_2094_" x="-339.9" y="287.6" transform="matrix(-0.7071 0.7071 -0.7071 -0.7071 -329.9039 824.5095)" class="st3" width="8.4" height="112.7"/>
							
								<rect id="XMLID_2095_" x="-329" y="276.7" transform="matrix(-0.7071 0.7071 -0.7071 -0.7071 -318.9834 798.1947)" class="st3" width="8.4" height="112.7"/>
							
								<rect id="XMLID_2096_" x="-318.1" y="265.8" transform="matrix(-0.7071 0.7071 -0.7071 -0.7071 -308.0627 771.8801)" class="st3" width="8.4" height="112.7"/>
							
								<rect id="XMLID_2097_" x="-307.2" y="254.9" transform="matrix(-0.7071 0.7071 -0.7071 -0.7071 -297.1421 745.5654)" class="st3" width="8.4" height="112.7"/>
						</g>
					</g>
				</g>
				<path id="XMLID_2070_" class="st1" d="M-291.1,319.4h-85.4c-1.6,0-2.8-1.3-2.8-2.8v-17.4c0-1.6,1.3-2.8,2.8-2.8h85.4
					c1.6,0,2.8,1.3,2.8,2.8v17.4C-288.3,318.1-289.6,319.4-291.1,319.4z"/>
			</g>
			<g id="XMLID_2104_">
				<rect id="XMLID_2101_" x="-341.4" y="296.5" class="st3" width="16.1" height="70.3"/>
				<rect id="XMLID_2102_" x="-341.4" y="296.5" class="st3" width="16.1" height="22.2"/>
			</g>
			<g id="XMLID_3_">
				<g id="XMLID_2106_" class="st4">
					<path id="XMLID_2125_" class="st5" d="M-341,296.4l-18.2-0.4c-0.2,0.6-3.7,20.8,10,19.1l2.4-1.3c5.4-1.3,9.1-4.8,9.1-8.8v-3.2
						C-337.8,299.8-339,297.8-341,296.4z"/>
				</g>
				<g id="XMLID_4_">
					<path id="XMLID_5_" class="st5" d="M-325.8,296.4l18.3-0.3c0.2,0.6,3.7,20.8-10,19.1l-2.4-1.3c-5.4-1.3-9.1-4.8-9.1-8.8v-3.2
						C-328.9,299.8-327.8,297.8-325.8,296.4z"/>
				</g>
			</g>
			<g id="XMLID_2107_">
				<polygon class="st6" points="-326.8,319 -333.4,311.4 -339.9,319.1 -339.9,327.8 -333.4,312.3 -326.8,327.9 				"/>
				<path id="XMLID_2124_" class="st3" d="M-317.2,318.1l-9.4-12.9c-0.5-0.6-1.3-0.8-1.9-0.4l-4.9,3.1l-4.9-3.1
					c-0.6-0.4-1.5-0.2-1.9,0.4l-9.4,12.9c-0.4,0.5-0.4,1.2-0.1,1.8l4.5,7.4c0.6,0.9,1.8,1,2.4,0.1l9.4-18.4l9.4,18.4
					c0.6,0.9,1.9,0.8,2.4-0.1l4.5-7.4C-316.8,319.4-316.8,318.6-317.2,318.1z"/>
				<g id="XMLID_2116_">
					<g id="XMLID_2109_">
						<g id="XMLID_2105_">
							<g id="XMLID_2111_">
								<path id="XMLID_34_" class="st7" d="M-347.4,311.6l-0.6,0.2c-4.5,1.3-8.1-1.4-8.1-6.1v-8.6c0-4.7,3.7-7.4,8.1-6.1l1.7,0.5
									c3.8,1.1,6.3,4.2,6.3,7.7v3.3C-340.1,306.7-343,310.3-347.4,311.6z"/>
								<path id="XMLID_33_" class="st8" d="M-347.4,311.6l-0.6,0.2c-4.5,1.3-8.1-1.4-8.1-6.1v-8.6c0-4.7,3.7-7.4,8.1-6.1l1.7,0.5
									c3.8,1.1,6.3,4.2,6.3,7.7v3.3C-340.1,306.7-343,310.3-347.4,311.6z"/>
							</g>
							<g id="XMLID_2112_">
								<line id="XMLID_2114_" class="st8" x1="-350.9" y1="296.7" x2="-346" y2="298.6"/>
								<line id="XMLID_2115_" class="st8" x1="-346" y1="304.3" x2="-350.9" y2="306.2"/>
							</g>
						</g>
						<g id="XMLID_2108_">
							<g id="XMLID_2120_">
								<path id="XMLID_45_" class="st7" d="M-319.3,311.6l0.6,0.2c4.5,1.3,8.1-1.4,8.1-6.1v-8.6c0-4.7-3.7-7.4-8.1-6.1l-1.7,0.5
									c-3.8,1.1-6.3,4.2-6.3,7.7v3.3C-326.6,306.7-323.7,310.3-319.3,311.6z"/>
								<path id="XMLID_44_" class="st8" d="M-319.3,311.6l0.6,0.2c4.5,1.3,8.1-1.4,8.1-6.1v-8.6c0-4.7-3.7-7.4-8.1-6.1l-1.7,0.5
									c-3.8,1.1-6.3,4.2-6.3,7.7v3.3C-326.6,306.7-323.7,310.3-319.3,311.6z"/>
							</g>
							<g id="XMLID_2117_">
								<line id="XMLID_2119_" class="st8" x1="-315.6" y1="296.7" x2="-320.5" y2="298.6"/>
								<line id="XMLID_2118_" class="st8" x1="-320.5" y1="304.3" x2="-315.6" y2="306.2"/>
							</g>
						</g>
					</g>
					<path id="XMLID_2110_" class="st3" d="M-331.8,309.5h-3.2c-3.7,0-6.8-3-6.8-6.8v-2.6c0-3.7,3-6.8,6.8-6.8h3.2
						c3.7,0,6.8,3,6.8,6.8v2.6C-325,306.5-328,309.5-331.8,309.5z"/>
				</g>
			</g>
		</g>
	</g>
	<g id="XMLID_1385_">
		<g id="XMLID_1380_">
			<circle class="st9" cx="-333.8" cy="266.4" r="11.4"/>
			<path d="M-333.8,279.5c-7.3,0-13.2-5.9-13.2-13.1s5.9-13.1,13.2-13.1s13.1,5.9,13.1,13.1S-326.5,279.5-333.8,279.5z
				 M-333.8,256.8c-5.3,0-9.7,4.3-9.7,9.6s4.3,9.6,9.7,9.6c5.3,0,9.6-4.3,9.6-9.6S-328.5,256.8-333.8,256.8z"/>
		</g>
		<path d="M-328.8,264.6h-3.3v-3.3c0-1-0.8-1.8-1.8-1.8c-1,0-1.8,0.8-1.8,1.8v3.3h-3.3c-1,0-1.8,0.8-1.8,1.8s0.8,1.8,1.8,1.8h3.3
			v3.3c0,1,0.8,1.8,1.8,1.8c1,0,1.8-0.8,1.8-1.8v-3.3h3.3c1,0,1.8-0.8,1.8-1.8S-327.8,264.6-328.8,264.6z"/>
	</g>
	<g id="XMLID_465_">
		<g id="XMLID_447_">
			<path class="st7" d="M-362.5,266.1l-11.3,9.3c-2.4,2-6,1.6-8-0.8l-22.4-27.4c-2-2.4-1.6-6,0.8-8l11.3-9.2c2.4-2,6-1.6,8,0.8
				l22.4,27.4C-359.8,260.6-360.1,264.2-362.5,266.1z"/>
			<path d="M-377.4,278.2c-2.1,0-4.1-0.9-5.6-2.6l-22.4-27.4c-2.5-3-2.1-7.5,1-10.1l11.3-9.2c1.5-1.2,3.3-1.8,5.3-1.6
				c1.9,0.2,3.6,1.1,4.8,2.6l22.4,27.4c1.2,1.5,1.7,3.3,1.5,5.2c-0.2,1.9-1.1,3.6-2.6,4.8l-11.3,9.3
				C-374.2,277.7-375.8,278.2-377.4,278.2z M-388.5,230.2c-0.9,0-1.9,0.3-2.6,0.9l-11.3,9.2c-1.8,1.5-2.1,4.1-0.6,5.9l22.4,27.4
				c1.5,1.8,4.1,2.1,5.9,0.6l11.3-9.3c0.8-0.7,1.3-1.6,1.5-2.7c0.1-1.1-0.2-2.2-0.9-3.1l-22.4-27.4
				C-386.1,230.7-387.3,230.2-388.5,230.2z"/>
		</g>
		<g id="XMLID_457_">
			
				<rect x="-395.7" y="238.2" transform="matrix(-0.7745 0.6326 -0.6326 -0.7745 -519.0726 691.015)" class="st9" width="26" height="29.6"/>
			<path d="M-383.6,274.8l-20.6-25.2l22.5-18.3l20.6,25.2L-383.6,274.8z M-400,250l16.8,20.6l17.8-14.5l-16.8-20.6L-400,250z"/>
		</g>
		<g id="XMLID_460_">
			<path class="st10" d="M-397,240.8c-0.3,0-0.6-0.1-0.8-0.4c-0.3-0.4-0.3-1.1,0.1-1.4l4.2-3.4c0.4-0.3,1.1-0.3,1.4,0.1
				c0.3,0.4,0.3,1.1-0.1,1.4l-4.2,3.4C-396.6,240.7-396.8,240.8-397,240.8z"/>
		</g>
		<circle id="XMLID_458_" class="st10" cx="-370.8" cy="267.6" r="1.7"/>
	</g>
	<g id="XMLID_319_">
		<g id="XMLID_335_">
			<g id="XMLID_708_">
				<path class="st9" d="M-279.3,269.4c-4.3-0.8-7-6.3-7.8-11.5l-4.5-0.9c-2.7,4.5-7.2,8.5-11.5,7.7c-6-1.2-9-11.4-7.8-17.5
					c1.2-6,7-9.9,12.9-8.7c0.2,0,0.4,0.1,0.6,0.1c0.1,0,0.1,0,0.2,0l22.2,4.3c0.1,0,0.1,0,0.2,0.1c0.2,0,0.4,0.1,0.6,0.1
					c6,1.2,9.9,7,8.7,12.9C-266.7,262.2-273.4,270.6-279.3,269.4z"/>
				<path class="st10" d="M-278.1,271c-0.5,0-1,0-1.4-0.1c-5-0.9-7.8-6.7-8.8-11.7l-2.5-0.5c-2.8,4.2-7.5,8.4-12.5,7.5
					c-7-1.4-10.3-12.7-9-19.3c0.7-3.3,2.6-6.2,5.4-8.1c2.7-1.8,6-2.5,9.2-1.9c0.2,0,0.4,0.1,0.5,0.1c0,0,0,0,0,0l0.4,0l22.1,4.3
					c0.2,0,0.4,0.1,0.6,0.2c0,0,0.1,0,0.1,0c0,0,0,0,0,0l0.2,0c3.3,0.7,6.2,2.6,8,5.4c1.8,2.8,2.5,6.1,1.8,9.3
					c-0.9,4.7-4.5,10.1-8.6,12.8C-274.5,270.4-276.4,271-278.1,271z M-292.3,255.3l6.6,1.3l0.2,1c0.7,4.5,3,9.6,6.6,10.3l0,0
					c1.8,0.4,3.5-0.5,4.7-1.3c3.4-2.3,6.5-7,7.3-10.9c0.5-2.4,0-4.9-1.4-7c-1.4-2.1-3.5-3.6-6-4.1c-0.2,0-0.4-0.1-0.5-0.1
					c0,0,0,0,0,0l-0.7-0.2l-21.8-4.2c-0.3,0-0.5-0.1-0.7-0.1c0,0,0,0,0,0l-0.2,0c-2.4-0.5-4.9,0-7,1.4c-2.1,1.4-3.6,3.6-4.1,6.1
					c-1.1,5.3,1.6,14.7,6.6,15.7c3.6,0.7,7.5-3,9.9-7L-292.3,255.3z"/>
			</g>
			<g id="XMLID_272_">
				<circle id="XMLID_339_" class="st10" cx="-272.6" cy="255.2" r="1.4"/>
				<circle id="XMLID_340_" class="st10" cx="-280.3" cy="253.7" r="1.4"/>
			</g>
			<g id="XMLID_273_">
				<path id="XMLID_341_" class="st10" d="M-295.5,251.3l-8.1-1.6c-0.5-0.1-0.9-0.6-0.8-1.1s0.6-0.9,1.1-0.8l8.1,1.6
					c0.5,0.1,0.9,0.6,0.8,1.1C-294.5,251.1-295,251.4-295.5,251.3z"/>
				<path id="XMLID_342_" class="st10" d="M-300.4,254.6c-0.5-0.1-0.9-0.6-0.8-1.1l1.6-8.1c0.1-0.5,0.6-0.9,1.1-0.8
					c0.5,0.1,0.9,0.6,0.8,1.1l-1.6,8.1C-299.3,254.3-299.9,254.7-300.4,254.6z"/>
			</g>
			<g id="XMLID_403_">
				<g id="XMLID_363_">
					<path d="M-280.8,237.9c-0.1,0-0.2,0-0.3,0l-9.8-1.9c-0.8-0.2-1.3-0.9-1.2-1.8s0.9-1.3,1.8-1.2l9.8,1.9c0.8,0.2,1.3,0.9,1.2,1.8
						C-279.5,237.4-280.1,237.9-280.8,237.9z"/>
				</g>
				<g id="XMLID_407_">
					<path class="st10" d="M-285.7,236.3c-0.1,0-0.2,0-0.3,0c-0.8-0.2-1.3-1-1.2-1.8l1.1-5.5c0.2-0.9,0.7-1.8,1.5-2.3
						c0.8-0.5,1.7-0.7,2.7-0.6l4.5,0.9c0.1,0,0.3,0.1,0.4,0.1l3.7,0.8c0.1,0,0.3,0,0.5-0.1c0.1-0.1,0.2-0.2,0.2-0.3l0.5-2.5
						c0.2-0.8,1-1.3,1.8-1.2c0.8,0.2,1.3,1,1.2,1.8l-0.5,2.5c-0.1,0.9-0.7,1.7-1.5,2.3c-0.8,0.6-1.8,0.8-2.8,0.6l-4.4-0.9
						c-0.1,0-0.3-0.1-0.4-0.1l-3.7-0.8c-0.2,0-0.4,0-0.5,0.1c-0.1,0.1-0.2,0.2-0.2,0.4l-1.1,5.5C-284.4,235.8-285,236.3-285.7,236.3
						z"/>
				</g>
			</g>
		</g>
		<g id="XMLID_271_">
			<circle id="XMLID_343_" class="st10" cx="-275.7" cy="250.7" r="1.4"/>
			<circle id="XMLID_344_" class="st10" cx="-277.2" cy="258.3" r="1.4"/>
		</g>
	</g>
	<g id="XMLID_336_">
		<g id="XMLID_421_">
			<path class="st9" d="M-314.8,196.3l-45.2,5.2c-0.2,0-0.3-0.2-0.2-0.3l5.3-6.8c0.4-0.4,0.9-0.7,1.4-0.8l30.5-3.5
				c0.5-0.1,1.1,0.1,1.5,0.4l6.8,5.4C-314.6,196-314.7,196.3-314.8,196.3z"/>
			<path class="st10" d="M-359.9,203L-359.9,203c-0.8,0-1.4-0.4-1.7-1.1c-0.2-0.6-0.1-1.2,0.3-1.7l5.4-6.9c0.6-0.6,1.4-1.1,2.2-1.2
				l0.1,0l30.4-3.5c1-0.2,2,0.2,2.6,0.7l7,5.5c0.5,0.5,0.6,1.2,0.3,1.9c-0.2,0.6-0.8,1-1.4,1L-359.9,203z M-353.8,195.4l-3.3,4.3
				l39.1-4.5l-4.4-3.5c-0.1-0.1-0.3-0.1-0.3-0.1l-0.1,0l-30.4,3.5C-353.4,195.1-353.6,195.2-353.8,195.4z"/>
		</g>
		<g id="XMLID_411_">
			<path id="XMLID_61_" class="st7" d="M-356.7,224.3c-0.7,0-1.2-0.5-1.3-1.2l-2.4-20.7c-0.1-0.7,0.4-1.4,1.2-1.5l43.5-5
				c0.1,0,0.1,0,0.2,0c0.7,0,1.3,0.5,1.3,1.2l2.4,20.7c0,0.4-0.1,0.7-0.3,1c-0.2,0.3-0.5,0.5-0.9,0.5l-11.7,1.4c-0.1,0-0.2,0-0.3,0
				c-1,0-1.9-0.5-2.1-0.8c-0.7-1.1-2.1-3-3.3-4.2c-0.2-0.2-1.8-1.8-4.5-1.8c-0.3,0-0.5,0-0.8,0c-2.6,0.3-4.2,2-4.7,2.9
				c-0.9,1.5-1.8,3.6-2.2,4.8c-0.1,0.5-1.1,1.2-2.2,1.3l-11.7,1.4C-356.6,224.3-356.7,224.3-356.7,224.3z"/>
			<g id="XMLID_57_">
				<path id="XMLID_58_" d="M-315.7,197.4l2.4,20.4l-11.5,1.3c-0.1,0-0.1,0-0.2,0c-0.4,0-0.8-0.1-0.9-0.2c-0.7-1.2-2.2-3.1-3.4-4.3
					c-0.2-0.2-2.2-2.2-5.6-2.2c-0.3,0-0.6,0-1,0.1c-3.9,0.4-5.7,3.3-5.8,3.6c-0.9,1.5-1.9,3.6-2.3,5c-0.2,0.2-0.6,0.4-1,0.5
					l-11.5,1.3l-2.4-20.4L-315.7,197.4 M-315.6,194.4c-0.1,0-0.2,0-0.3,0l-43.5,5c-1.5,0.2-2.7,1.6-2.5,3.1l2.4,20.7
					c0.2,1.4,1.4,2.5,2.8,2.5c0.1,0,0.2,0,0.3,0l11.7-1.4c1.5-0.2,3.1-1.3,3.5-2.4c0.4-1.1,1.3-3.2,2.1-4.5c0,0,1.1-1.9,3.6-2.2
					c0.2,0,0.4,0,0.6,0c2.1,0,3.4,1.3,3.4,1.3c1.1,1.1,2.5,2.9,3.1,3.9c0.5,0.9,2,1.6,3.4,1.6c0.2,0,0.3,0,0.5,0l11.7-1.4
					c1.5-0.2,2.7-1.6,2.5-3.1l-2.4-20.6C-312.9,195.5-314.1,194.4-315.6,194.4L-315.6,194.4z"/>
			</g>
		</g>
		<g id="XMLID_346_">
			<g id="XMLID_409_">
				<g id="XMLID_410_">
					<circle class="st9" cx="-347.6" cy="209.5" r="4.3"/>
					<path class="st10" d="M-347.6,215.3c-3.2,0-5.8-2.6-5.8-5.8s2.6-5.8,5.8-5.8s5.8,2.6,5.8,5.8S-344.4,215.3-347.6,215.3z
						 M-347.6,206.7c-1.5,0-2.8,1.3-2.8,2.8s1.3,2.8,2.8,2.8s2.8-1.3,2.8-2.8S-346.1,206.7-347.6,206.7z"/>
				</g>
			</g>
			<g id="XMLID_405_">
				<g id="XMLID_408_">
					<circle class="st9" cx="-325.1" cy="206.9" r="4.3"/>
					<path class="st10" d="M-325.1,212.7c-3.2,0-5.8-2.6-5.8-5.8s2.6-5.8,5.8-5.8s5.8,2.6,5.8,5.8S-321.9,212.7-325.1,212.7z
						 M-325.1,204.1c-1.5,0-2.8,1.3-2.8,2.8s1.3,2.8,2.8,2.8s2.8-1.3,2.8-2.8S-323.6,204.1-325.1,204.1z"/>
				</g>
			</g>
		</g>
	</g>
	<g id="XMLID_381_">
		<path d="M-343.2,244.5c-0.8,0-1.4-0.6-1.5-1.4l-0.5-5.9c-0.1-0.8,0.5-1.6,1.4-1.6c0.8-0.1,1.6,0.5,1.6,1.4l0.5,5.9
			c0.1,0.8-0.5,1.6-1.4,1.6C-343.1,244.5-343.2,244.5-343.2,244.5z"/>
	</g>
	<g id="XMLID_225_">
		<path d="M-351.1,243.6c-0.3,0-0.6-0.1-0.9-0.3l-7-5.4c-0.7-0.5-0.8-1.4-0.3-2.1c0.5-0.7,1.4-0.8,2.1-0.3l7,5.4
			c0.7,0.5,0.8,1.4,0.3,2.1C-350.2,243.4-350.7,243.6-351.1,243.6z"/>
	</g>
	<g id="XMLID_176_">
		<path d="M-315,280.2c-0.7,0-1.3-0.5-1.5-1.1c-0.2-0.8,0.3-1.6,1.1-1.8l9.2-2.3c0.8-0.2,1.6,0.3,1.8,1.1c0.2,0.8-0.3,1.6-1.1,1.8
			l-9.2,2.3C-314.8,280.2-314.9,280.2-315,280.2z"/>
	</g>
	<g id="XMLID_177_">
		<path d="M-326.8,245.5c-0.3,0-0.5-0.1-0.7-0.2c-0.7-0.4-1-1.3-0.6-2l6.6-11.6c0.4-0.7,1.3-1,2-0.6c0.7,0.4,1,1.3,0.6,2l-6.6,11.6
			C-325.8,245.2-326.3,245.5-326.8,245.5z"/>
	</g>
</g>
</svg>
